  http://www.imdb.com/title/tt0955308/

Release Date: 14 May 2010 (USA)

Genre: Action | Adventure | Drama

Plot: The story of an archer in the army of Richard Coeur de Lion who fights against the Norman invaders and becomes the legendary hero known as Robin Hood.

Cast:
Russell Crowe ... Robin Longstride
Cate Blanchett ... Marion Loxley
Max von Sydow ... Sir Walter Loxley
William Hurt ... William Marshal
Mark Strong ... Godfrey
Oscar Isaac ... Prince John
Danny Huston ... King Richard The Lionheart
Eileen Atkins ... Eleanor of Aquitaine
Mark Addy ... Friar Tuck
Matthew Macfadyen ... Sheriff of Nottingham
Kevin Durand ... Little John
Scott Grimes ... Will Scarlet
Alan Doyle ... Allan A'Dayle
Douglas Hodge ... Sir Robert Loxley
Léa Seydoux ... Isabella of Angoulême

Screens
 
http://www.imagebam.com/image/c8666996961908

File Name

Robin Hood 2010 Unrated DC 536p BRRip H264.mp4

File Size
Format : MPEG-4
Format profile : Base Media
Codec ID : isom
File size : 2.98 GiB
Duration : 2h 35mn
Overall bit rate : 2 740 Kbps

Video
ID : 1
Format : AVC
Format/Info : Advanced Video Codec
Format profile : High@L4.1
Format settings, CABAC : Yes
Format settings, ReFrames : 3 frames
Codec ID : avc1
Codec ID/Info : Advanced Video Coding
Duration : 2h 35mn
Bit rate mode : Variable
Bit rate : 2 099 Kbps
Maximum bit rate : 14.0 Mbps
Width : 1 280 pixels
Height : 536 pixels
Display aspect ratio : 2.35:1
Frame rate mode : Constant
Frame rate : 23.976 fps
Resolution : 24 bits
Colorimetry : 4:2:0
Scan type : Progressive
Bits/(Pixel*Frame) : 0.128
Stream size : 2.28 GiB (76%)

Audio #1
ID : 2
Format : AAC
Format/Info : Advanced Audio Codec
Format version : Version 4
Format profile : LC
Format settings, SBR : No
Codec ID : 40
Duration : 2h 35mn
Bit rate mode : Variable
Bit rate : 192 Kbps
Maximum bit rate : 199 Kbps
Channel(s) : 2 channels
Channel positions : L R
Sampling rate : 48.0 KHz
Resolution : 16 bits
Stream size : 213 MiB (7%)

Audio #2
ID : 3
Format : AAC
Format/Info : Advanced Audio Codec
Format version : Version 4
Format profile : LC
Format settings, SBR : No
Codec ID : 40
Duration : 2h 35mn
Bit rate mode : Variable
Bit rate : 448 Kbps
Maximum bit rate : 466 Kbps
Channel(s) : 6 channels
Channel positions : Front: L C R, Rear: L R, LFE
Sampling rate : 48.0 KHz
Resolution : 16 bits
Stream size : 499 MiB (16%)

English SRT : External

Language : English